<?xml version="1.0" encoding="UTF-8"?>
<svg version="1.1" xmlns="http://www.w3.org/2000/svg" width="512" height="512">
<path d="M0 0 C6.13052573 3.70468329 9.9448497 8.95587425 12.5625 15.5 C12.5625 20.45 12.5625 25.4 12.5625 30.5 C28.4025 30.5 44.2425 30.5 60.5625 30.5 C60.5625 25.55 60.5625 20.6 60.5625 15.5 C63.01848896 8.13203312 67.89906888 2.84736466 74.890625 -0.671875 C81.36464965 -2.67844404 89.73527577 -2.7761327 96 0 C102.13052573 3.70468329 105.9448497 8.95587425 108.5625 15.5 C108.5625 20.45 108.5625 25.4 108.5625 30.5 C124.4025 30.5 140.2425 30.5 156.5625 30.5 C156.5625 25.55 156.5625 20.6 156.5625 15.5 C159.01848896 8.13203312 163.89906888 2.84736466 170.890625 -0.671875 C177.36464965 -2.67844404 185.73527577 -2.7761327 192 0 C198.13052573 3.70468329 201.9448497 8.95587425 204.5625 15.5 C204.5625 20.45 204.5625 25.4 204.5625 30.5 C220.4025 30.5 236.2425 30.5 252.5625 30.5 C252.5625 25.55 252.5625 20.6 252.5625 15.5 C255.01848896 8.13203312 259.89906888 2.84736466 266.890625 -0.671875 C273.36464965 -2.67844404 281.73527577 -2.7761327 288 0 C293.78333721 3.49487689 298.63045208 8.99791565 300.5625 15.5 C300.69960218 18.14607209 300.75312972 20.67469013 300.6875 23.3125 C300.67847656 24.00537109 300.66945313 24.69824219 300.66015625 25.41210938 C300.63676157 27.10822395 300.60089641 28.80415871 300.5625 30.5 C301.67625 30.4175 302.79 30.335 303.9375 30.25 C311.59032973 30.27708966 318.49397235 33.62526663 324.03125 38.796875 C329.74077353 45.14726342 332.80836394 52.11382645 332.81976891 60.7076683 C332.8262178 61.93960285 332.83266669 63.17153739 332.839311 64.44080329 C332.83636902 65.79970831 332.8332336 67.15861291 332.82992554 68.51751709 C332.83366335 69.96750063 332.83826539 71.41748215 332.84365618 72.86746049 C332.85588557 76.84797539 332.85562579 80.82840624 332.85326743 84.80893564 C332.85285925 89.10355327 332.8638986 93.39814395 332.87338257 97.69274902 C332.88999344 106.1054687 332.89549216 114.51816035 332.89660732 122.93089506 C332.8975578 129.76991564 332.90166808 136.60892698 332.90800858 143.44794464 C332.92562158 162.84065381 332.93484741 182.23334085 332.93334763 201.62605807 C332.93326772 202.67146086 332.9331878 203.71686365 332.93310547 204.79394531 C332.93302371 205.8406256 332.93294195 206.88730588 332.93285771 207.96570376 C332.93204489 224.92677024 332.95118128 241.88774791 332.9793822 258.84878871 C333.00811463 276.26704442 333.02192228 293.68525683 333.02019465 311.10353684 C333.01953085 320.8814381 333.02501869 330.65924625 333.04655075 340.43712616 C333.0647673 348.76273608 333.06910602 357.08821069 333.0555319 365.41383192 C333.04900452 369.66016595 333.04887665 373.90624044 333.0662384 378.15254974 C333.08198458 382.04381495 333.07909003 385.93461515 333.06167014 389.82586911 C333.05860361 391.22962899 333.0622196 392.63342371 333.07339029 394.03714249 C333.15312128 404.77163754 331.81605739 413.88444865 324.265625 421.96875 C317.91523658 427.67827353 310.94867355 430.74586394 302.3548317 430.75726891 C300.50692988 430.76694224 300.50692988 430.76694224 298.62169671 430.776811 C297.26279169 430.77386902 295.90388709 430.7707336 294.54498291 430.76742554 C293.09499937 430.77116335 291.64501785 430.77576539 290.19503951 430.78115618 C286.21452461 430.79338557 282.23409376 430.79312579 278.25356436 430.79076743 C273.95894673 430.79035925 269.66435605 430.8013986 265.36975098 430.81088257 C256.9570313 430.82749344 248.54433965 430.83299216 240.13160494 430.83410732 C233.29258436 430.8350578 226.45357302 430.83916808 219.61455536 430.84550858 C200.22184619 430.86312158 180.82915915 430.87234741 161.43644193 430.87084763 C159.86833774 430.87072776 159.86833774 430.87072776 158.26855469 430.87060547 C156.69853426 430.87048283 156.69853426 430.87048283 155.09679624 430.87035771 C138.13572976 430.86954489 121.17475209 430.88868128 104.21371129 430.9168822 C86.79545558 430.94561463 69.37724317 430.95942228 51.95896316 430.95769465 C42.1810619 430.95703085 32.40325375 430.96251869 22.62537384 430.98405075 C14.29976392 431.0022673 5.97428931 431.00660602 -2.35133192 430.9930319 C-6.59766595 430.98650452 -10.84374044 430.98637665 -15.09004974 431.0037384 C-18.98131495 431.01948458 -22.87211515 431.01659003 -26.76336911 430.99917014 C-28.16712899 430.99610361 -29.57092371 430.9997196 -30.97464249 431.01089029 C-41.70913754 431.09062128 -50.82194865 429.75355739 -58.90625 422.203125 C-64.61577353 415.85273658 -67.68336394 408.88617355 -67.69476891 400.2923317 C-67.7012178 399.06039715 -67.70766669 397.82846261 -67.714311 396.55919671 C-67.71136902 395.20029169 -67.7082336 393.84138709 -67.70492554 392.48248291 C-67.70866335 391.03249937 -67.71326539 389.58251785 -67.71865618 388.13253951 C-67.73088557 384.15202461 -67.73062579 380.17159376 -67.72826743 376.19106436 C-67.72785925 371.89644673 -67.7388986 367.60185605 -67.74838257 363.30725098 C-67.76499344 354.8945313 -67.77049216 346.48183965 -67.77160732 338.06910494 C-67.7725578 331.23008436 -67.77666808 324.39107302 -67.78300858 317.55205536 C-67.80062158 298.15934619 -67.80984741 278.76665915 -67.80834763 259.37394193 C-67.80822776 257.80583774 -67.80822776 257.80583774 -67.80810547 256.20605469 C-67.80802371 255.1593744 -67.80794195 254.11269412 -67.80785771 253.03429624 C-67.80704489 236.07322976 -67.82618128 219.11225209 -67.8543822 202.15121129 C-67.88311463 184.73295558 -67.89692228 167.31474317 -67.89519465 149.89646316 C-67.89453085 140.1185619 -67.90001869 130.34075375 -67.92155075 120.56287384 C-67.9397673 112.23726392 -67.94410602 103.91178931 -67.9305319 95.58616808 C-67.92400452 91.33983405 -67.92387665 87.09375956 -67.9412384 82.84745026 C-67.95698458 78.95618505 -67.95409003 75.06538485 -67.93667014 71.17413089 C-67.93360361 69.77037101 -67.9372196 68.36657629 -67.94839029 66.96285751 C-68.02812128 56.22836246 -66.69105739 47.11555135 -59.140625 39.03125 C-52.04800156 32.6543959 -44.87536431 30.1745564 -35.4375 30.5 C-35.48390625 29.51 -35.5303125 28.52 -35.578125 27.5 C-36.0583247 13.13766356 -36.0583247 13.13766356 -31.4375 7.5 C-23.12599059 -1.21060068 -11.72950562 -5.19778092 0 0 Z M-16.75 17.3125 C-20.24274711 21.84013514 -19.4375 24.27099027 -19.4375 30.5 C-14.1575 30.5 -8.8775 30.5 -3.4375 30.5 C-3.2732309 22.71430216 -3.2732309 22.71430216 -6.4375 16.5 C-10.23281479 14.60234261 -13.41071965 14.69522621 -16.75 17.3125 Z M79.25 17.3125 C75.75725289 21.84013514 76.5625 24.27099027 76.5625 30.5 C81.8425 30.5 87.1225 30.5 92.5625 30.5 C92.7267691 22.71430216 92.7267691 22.71430216 89.5625 16.5 C85.76718521 14.60234261 82.58928035 14.69522621 79.25 17.3125 Z M175.25 17.3125 C171.75725289 21.84013514 172.5625 24.27099027 172.5625 30.5 C177.8425 30.5 183.1225 30.5 188.5625 30.5 C188.7267691 22.71430216 188.7267691 22.71430216 185.5625 16.5 C181.76718521 14.60234261 178.58928035 14.69522621 175.25 17.3125 Z M271.25 17.3125 C267.75725289 21.84013514 268.5625 24.27099027 268.5625 30.5 C273.8425 30.5 279.1225 30.5 284.5625 30.5 C284.7267691 22.71430216 284.7267691 22.71430216 281.5625 16.5 C277.76718521 14.60234261 274.58928035 14.69522621 271.25 17.3125 Z " fill="#F1F0DE" transform="translate(123.4375,41.5)"/>
<path d="M0 0 C6.13052573 3.70468329 9.9448497 8.95587425 12.5625 15.5 C12.5625 20.45 12.5625 25.4 12.5625 30.5 C28.4025 30.5 44.2425 30.5 60.5625 30.5 C60.5625 25.55 60.5625 20.6 60.5625 15.5 C63.01848896 8.13203312 67.89906888 2.84736466 74.890625 -0.671875 C81.36464965 -2.67844404 89.73527577 -2.7761327 96 0 C102.13052573 3.70468329 105.9448497 8.95587425 108.5625 15.5 C108.5625 20.45 108.5625 25.4 108.5625 30.5 C124.4025 30.5 140.2425 30.5 156.5625 30.5 C156.5625 25.55 156.5625 20.6 156.5625 15.5 C159.01848896 8.13203312 163.89906888 2.84736466 170.890625 -0.671875 C177.36464965 -2.67844404 185.73527577 -2.7761327 192 0 C198.13052573 3.70468329 201.9448497 8.95587425 204.5625 15.5 C204.5625 20.45 204.5625 25.4 204.5625 30.5 C220.4025 30.5 236.2425 30.5 252.5625 30.5 C252.5625 25.55 252.5625 20.6 252.5625 15.5 C255.01848896 8.13203312 259.89906888 2.84736466 266.890625 -0.671875 C273.36464965 -2.67844404 281.73527577 -2.7761327 288 0 C293.78333721 3.49487689 298.63045208 8.99791565 300.5625 15.5 C300.69960218 18.14607209 300.75312972 20.67469013 300.6875 23.3125 C300.67847656 24.00537109 300.66945313 24.69824219 300.66015625 25.41210938 C300.63676157 27.10822395 300.60089641 28.80415871 300.5625 30.5 C301.67625 30.4175 302.79 30.335 303.9375 30.25 C311.59032973 30.27708966 318.49397235 33.62526663 324.03125 38.796875 C339.74430293 56.27363796 332.5625 79.56290945 332.5625 102.5 C200.5625 102.5 68.5625 102.5 -67.4375 102.5 C-67.4375 47.91477273 -67.4375 47.91477273 -59.140625 39.03125 C-52.04800156 32.6543959 -44.87536431 30.1745564 -35.4375 30.5 C-35.48390625 29.51 -35.5303125 28.52 -35.578125 27.5 C-36.0583247 13.13766356 -36.0583247 13.13766356 -31.4375 7.5 C-23.12599059 -1.21060068 -11.72950562 -5.19778092 0 0 Z M-16.75 17.3125 C-20.24274711 21.84013514 -19.4375 24.27099027 -19.4375 30.5 C-14.1575 30.5 -8.8775 30.5 -3.4375 30.5 C-3.2732309 22.71430216 -3.2732309 22.71430216 -6.4375 16.5 C-10.23281479 14.60234261 -13.41071965 14.69522621 -16.75 17.3125 Z M79.25 17.3125 C75.75725289 21.84013514 76.5625 24.27099027 76.5625 30.5 C81.8425 30.5 87.1225 30.5 92.5625 30.5 C92.7267691 22.71430216 92.7267691 22.71430216 89.5625 16.5 C85.76718521 14.60234261 82.58928035 14.69522621 79.25 17.3125 Z M175.25 17.3125 C171.75725289 21.84013514 172.5625 24.27099027 172.5625 30.5 C177.8425 30.5 183.1225 30.5 188.5625 30.5 C188.7267691 22.71430216 188.7267691 22.71430216 185.5625 16.5 C181.76718521 14.60234261 178.58928035 14.69522621 175.25 17.3125 Z M271.25 17.3125 C267.75725289 21.84013514 268.5625 24.27099027 268.5625 30.5 C273.8425 30.5 279.1225 30.5 284.5625 30.5 C284.7267691 22.71430216 284.7267691 22.71430216 281.5625 16.5 C277.76718521 14.60234261 274.58928035 14.69522621 271.25 17.3125 Z " fill="#F14B59" transform="translate(123.4375,41.5)"/>
<path d="M0 0 C0.33 0 0.66 0 1 0 C1.09292776 11.17061224 1.16388036 22.34113159 1.20724869 33.51205254 C1.2280697 38.69990629 1.2562867 43.8874944 1.30175781 49.07519531 C1.34541174 54.08728754 1.36917832 59.09912521 1.37950897 64.11139297 C1.38686537 66.01785409 1.40123032 67.92430222 1.42292023 69.83065414 C1.55745915 82.15222536 1.61002434 92.9320699 -7.296875 102.46875 C-13.64726342 108.17827353 -20.61382645 111.24586394 -29.2076683 111.25726891 C-31.05557012 111.26694224 -31.05557012 111.26694224 -32.94080329 111.276811 C-34.29970831 111.27386902 -35.65861291 111.2707336 -37.01751709 111.26742554 C-38.46750063 111.27116335 -39.91748215 111.27576539 -41.36746049 111.28115618 C-45.34797539 111.29338557 -49.32840624 111.29312579 -53.30893564 111.29076743 C-57.60355327 111.29035925 -61.89814395 111.3013986 -66.19274902 111.31088257 C-74.6054687 111.32749344 -83.01816035 111.33299216 -91.43089506 111.33410732 C-98.26991564 111.3350578 -105.10892698 111.33916808 -111.94794464 111.34550858 C-131.34065381 111.36312158 -150.73334085 111.37234741 -170.12605807 111.37084763 C-171.69416226 111.37072776 -171.69416226 111.37072776 -173.29394531 111.37060547 C-174.86396574 111.37048283 -174.86396574 111.37048283 -176.46570376 111.37035771 C-193.42677024 111.36954489 -210.38774791 111.38868128 -227.34878871 111.4168822 C-244.76704442 111.44561463 -262.18525683 111.45942228 -279.60353684 111.45769465 C-289.3814381 111.45703085 -299.15924625 111.46251869 -308.93712616 111.48405075 C-317.26273608 111.5022673 -325.58821069 111.50660602 -333.91383192 111.4930319 C-338.16016595 111.48650452 -342.40624044 111.48637665 -346.65254974 111.5037384 C-350.54381495 111.51948458 -354.43461515 111.51659003 -358.32586911 111.49917014 C-359.72962899 111.49610361 -361.13342371 111.4997196 -362.53714249 111.51089029 C-373.27163754 111.59062128 -382.38444865 110.25355739 -390.46875 102.703125 C-396.76722201 95.69768164 -399.33141245 88.37383258 -399.1953125 78.9765625 C-399.1924826 78.23038666 -399.18965271 77.48421082 -399.18673706 76.71542358 C-399.17561687 74.35178012 -399.15052821 71.98852732 -399.125 69.625 C-399.11495962 68.01432842 -399.10583562 66.40365085 -399.09765625 64.79296875 C-399.0757044 60.86183056 -399.04123185 56.93098133 -399 53 C-397.08751304 55.86873045 -395.83673482 58.60869789 -394.4375 61.75 C-390.38026894 69.91382016 -384.92757168 74.20199624 -376.40799451 77.32522666 C-371.79412808 78.61813411 -367.09121742 78.68854423 -362.32553101 78.88563538 C-361.16499824 78.94323278 -360.00446548 79.00083019 -358.80876505 79.06017298 C-355.60293461 79.21480746 -352.39686941 79.35672214 -349.19015574 79.49160254 C-347.13564568 79.57931129 -345.08141687 79.67200233 -343.02719498 79.76620674 C-316.75890437 80.96717386 -290.47685716 81.69006551 -264.18740442 82.23424793 C-259.86364578 82.32376364 -255.53995899 82.41639317 -251.21630859 82.51098633 C-250.35607085 82.52975004 -249.4958331 82.54851375 -248.60952754 82.56784605 C-235.69655781 82.85730501 -222.80842362 83.38655099 -209.90966797 84.04907227 C-189.97147092 85.0598137 -170.05115011 85.69330914 -150.0859375 85.72265625 C-149.28019818 85.72460088 -148.47445886 85.72654551 -147.6443032 85.72854906 C-104.19497015 85.77716324 -71.62640647 81.23193586 -39.75259399 49.73497009 C-25.75525381 35.29727014 -13.28105181 19.59503674 -2.05608559 2.92711544 C-1.37757734 1.96116735 -0.6990691 0.99521925 0 0 Z " fill="#3A8D7C" transform="translate(455,361)"/>
<path d="M0 0 C26.4 0 52.8 0 80 0 C73.24974266 7.87530023 73.24974266 7.87530023 70.51383972 10.61314392 C69.89280365 11.23699982 69.27176758 11.86085571 68.63191223 12.50361633 C67.64272041 13.4897718 67.64272041 13.4897718 66.63354492 14.49584961 C65.9222644 15.20888245 65.21098389 15.92191528 64.47814941 16.65655518 C62.1480827 18.99099093 59.81441616 21.32178837 57.48046875 23.65234375 C55.85461553 25.27887098 54.22891076 26.9055466 52.60334778 28.53236389 C49.20829779 31.92888376 45.81145632 35.32359894 42.41333008 38.71704102 C38.0471948 43.07745209 33.68560058 47.44237365 29.32531261 51.80863094 C25.97554017 55.16200495 22.62340452 58.51300841 19.27053261 61.86328316 C17.66015425 63.47299253 16.05052363 65.08345029 14.44164085 66.69465446 C12.20332381 68.93549432 9.96185558 71.17313219 7.71948242 73.40991211 C7.04990005 74.08151871 6.38031769 74.75312531 5.69044495 75.44508362 C1.11426768 80 1.11426768 80 0 80 C0 53.6 0 27.2 0 0 Z " fill="#96D7BF" transform="translate(376,360)"/>
<path d="M0 0 C5.78333721 3.49487689 10.63045208 8.99791565 12.5625 15.5 C12.70006975 18.15509615 12.75279073 20.6676475 12.6875 23.3125 C12.64625 25.684375 12.605 28.05625 12.5625 30.5 C7.2825 30.5 2.0025 30.5 -3.4375 30.5 C-4.07226562 26.34960938 -4.07226562 26.34960938 -4.70703125 22.19921875 C-5.48171172 19.33662943 -6.05870588 18.22217783 -8.4375 16.5 C-11.65840079 16.0973874 -13.5710699 15.8725851 -16.25 17.8125 C-18.9255319 21.61457165 -18.59855801 25.64542439 -18.60546875 30.08984375 C-18.60879715 30.83077774 -18.61212555 31.57171173 -18.61555481 32.33509827 C-18.62061353 33.90104553 -18.62296346 35.46700356 -18.62280273 37.03295898 C-18.62498871 39.42514853 -18.6431537 41.81687643 -18.66210938 44.20898438 C-18.66504364 45.73176926 -18.66702822 47.25455633 -18.66796875 48.77734375 C-18.67515427 49.49099594 -18.68233978 50.20464813 -18.68974304 50.93992615 C-18.67300093 54.58978894 -18.60635582 57.47346029 -16.4375 60.5 C-14.13677485 61.48522271 -14.13677485 61.48522271 -11.5 62 C-8.38942866 62.69632819 -6.84860595 63.06292004 -4.64453125 65.40625 C-2.9784627 68.29625887 -3.02694614 70.21556909 -3.4375 73.5 C-5.21734405 76.6359157 -5.96058207 77.34102736 -9.4375 78.5 C-15.78961366 79.03831472 -20.1953383 78.24290346 -25.4375 74.5 C-31.39088866 69.01097566 -35.45484815 63.02680874 -35.84155273 54.79321289 C-35.86787437 53.01986201 -35.87687087 51.24619306 -35.87109375 49.47265625 C-35.8763356 48.52490829 -35.88157745 47.57716034 -35.88697815 46.60069275 C-35.89337574 44.6046547 -35.89209081 42.60857884 -35.88354492 40.61254883 C-35.875035 37.57499428 -35.90382821 34.53932232 -35.93554688 31.50195312 C-35.93715924 29.55468806 -35.93658068 27.60741969 -35.93359375 25.66015625 C-35.94482773 24.76095963 -35.95606171 23.861763 -35.96763611 22.93531799 C-35.89051516 15.88402883 -34.15512849 10.60123012 -29.47265625 5.2578125 C-28.82167969 4.71898437 -28.17070312 4.18015625 -27.5 3.625 C-26.85160156 3.07070313 -26.20320313 2.51640625 -25.53515625 1.9453125 C-18.47077988 -2.92213491 -7.84396301 -3.47595223 0 0 Z " fill="#020A27" transform="translate(411.4375,41.5)"/>
<path d="M0 0 C5.78333721 3.49487689 10.63045208 8.99791565 12.5625 15.5 C12.70006975 18.15509615 12.75279073 20.6676475 12.6875 23.3125 C12.64625 25.684375 12.605 28.05625 12.5625 30.5 C7.2825 30.5 2.0025 30.5 -3.4375 30.5 C-4.07226562 26.34960938 -4.07226562 26.34960938 -4.70703125 22.19921875 C-5.48171172 19.33662943 -6.05870588 18.22217783 -8.4375 16.5 C-11.65840079 16.0973874 -13.5710699 15.8725851 -16.25 17.8125 C-18.9255319 21.61457165 -18.59855801 25.64542439 -18.60546875 30.08984375 C-18.60879715 30.83077774 -18.61212555 31.57171173 -18.61555481 32.33509827 C-18.62061353 33.90104553 -18.62296346 35.46700356 -18.62280273 37.03295898 C-18.62498871 39.42514853 -18.6431537 41.81687643 -18.66210938 44.20898438 C-18.66504364 45.73176926 -18.66702822 47.25455633 -18.66796875 48.77734375 C-18.67515427 49.49099594 -18.68233978 50.20464813 -18.68974304 50.93992615 C-18.67300093 54.58978894 -18.60635582 57.47346029 -16.4375 60.5 C-14.13677485 61.48522271 -14.13677485 61.48522271 -11.5 62 C-8.38942866 62.69632819 -6.84860595 63.06292004 -4.64453125 65.40625 C-2.9784627 68.29625887 -3.02694614 70.21556909 -3.4375 73.5 C-5.21734405 76.6359157 -5.96058207 77.34102736 -9.4375 78.5 C-15.78961366 79.03831472 -20.1953383 78.24290346 -25.4375 74.5 C-31.39088866 69.01097566 -35.45484815 63.02680874 -35.84155273 54.79321289 C-35.86787437 53.01986201 -35.87687087 51.24619306 -35.87109375 49.47265625 C-35.8763356 48.52490829 -35.88157745 47.57716034 -35.88697815 46.60069275 C-35.89337574 44.6046547 -35.89209081 42.60857884 -35.88354492 40.61254883 C-35.875035 37.57499428 -35.90382821 34.53932232 -35.93554688 31.50195312 C-35.93715924 29.55468806 -35.93658068 27.60741969 -35.93359375 25.66015625 C-35.94482773 24.76095963 -35.95606171 23.861763 -35.96763611 22.93531799 C-35.89051516 15.88402883 -34.15512849 10.60123012 -29.47265625 5.2578125 C-28.82167969 4.71898437 -28.17070312 4.18015625 -27.5 3.625 C-26.85160156 3.07070313 -26.20320313 2.51640625 -25.53515625 1.9453125 C-18.47077988 -2.92213491 -7.84396301 -3.47595223 0 0 Z " fill="#020A27" transform="translate(315.4375,41.5)"/>
<path d="M0 0 C5.78333721 3.49487689 10.63045208 8.99791565 12.5625 15.5 C12.70006975 18.15509615 12.75279073 20.6676475 12.6875 23.3125 C12.64625 25.684375 12.605 28.05625 12.5625 30.5 C7.2825 30.5 2.0025 30.5 -3.4375 30.5 C-4.07226562 26.34960938 -4.07226562 26.34960938 -4.70703125 22.19921875 C-5.48171172 19.33662943 -6.05870588 18.22217783 -8.4375 16.5 C-11.65840079 16.0973874 -13.5710699 15.8725851 -16.25 17.8125 C-18.9255319 21.61457165 -18.59855801 25.64542439 -18.60546875 30.08984375 C-18.60879715 30.83077774 -18.61212555 31.57171173 -18.61555481 32.33509827 C-18.62061353 33.90104553 -18.62296346 35.46700356 -18.62280273 37.03295898 C-18.62498871 39.42514853 -18.6431537 41.81687643 -18.66210938 44.20898438 C-18.66504364 45.73176926 -18.66702822 47.25455633 -18.66796875 48.77734375 C-18.67515427 49.49099594 -18.68233978 50.20464813 -18.68974304 50.93992615 C-18.67300093 54.58978894 -18.60635582 57.47346029 -16.4375 60.5 C-14.13677485 61.48522271 -14.13677485 61.48522271 -11.5 62 C-8.38942866 62.69632819 -6.84860595 63.06292004 -4.64453125 65.40625 C-2.9784627 68.29625887 -3.02694614 70.21556909 -3.4375 73.5 C-5.21734405 76.6359157 -5.96058207 77.34102736 -9.4375 78.5 C-15.78961366 79.03831472 -20.1953383 78.24290346 -25.4375 74.5 C-31.39088866 69.01097566 -35.45484815 63.02680874 -35.84155273 54.79321289 C-35.86787437 53.01986201 -35.87687087 51.24619306 -35.87109375 49.47265625 C-35.8763356 48.52490829 -35.88157745 47.57716034 -35.88697815 46.60069275 C-35.89337574 44.6046547 -35.89209081 42.60857884 -35.88354492 40.61254883 C-35.875035 37.57499428 -35.90382821 34.53932232 -35.93554688 31.50195312 C-35.93715924 29.55468806 -35.93658068 27.60741969 -35.93359375 25.66015625 C-35.94482773 24.76095963 -35.95606171 23.861763 -35.96763611 22.93531799 C-35.89051516 15.88402883 -34.15512849 10.60123012 -29.47265625 5.2578125 C-28.82167969 4.71898437 -28.17070312 4.18015625 -27.5 3.625 C-26.85160156 3.07070313 -26.20320312 2.51640625 -25.53515625 1.9453125 C-18.47077988 -2.92213491 -7.84396301 -3.47595223 0 0 Z " fill="#020A27" transform="translate(219.4375,41.5)"/>
<path d="M0 0 C5.78333721 3.49487689 10.63045208 8.99791565 12.5625 15.5 C12.70006975 18.15509615 12.75279073 20.6676475 12.6875 23.3125 C12.64625 25.684375 12.605 28.05625 12.5625 30.5 C7.2825 30.5 2.0025 30.5 -3.4375 30.5 C-4.07226562 26.34960938 -4.07226562 26.34960938 -4.70703125 22.19921875 C-5.48171172 19.33662943 -6.05870588 18.22217783 -8.4375 16.5 C-11.65840079 16.0973874 -13.5710699 15.8725851 -16.25 17.8125 C-18.9255319 21.61457165 -18.59855801 25.64542439 -18.60546875 30.08984375 C-18.60879715 30.83077774 -18.61212555 31.57171173 -18.61555481 32.33509827 C-18.62061353 33.90104553 -18.62296346 35.46700356 -18.62280273 37.03295898 C-18.62498871 39.42514853 -18.6431537 41.81687643 -18.66210938 44.20898438 C-18.66504364 45.73176926 -18.66702822 47.25455633 -18.66796875 48.77734375 C-18.67515427 49.49099594 -18.68233978 50.20464813 -18.68974304 50.93992615 C-18.67300093 54.58978894 -18.60635582 57.47346029 -16.4375 60.5 C-14.13677485 61.48522271 -14.13677485 61.48522271 -11.5 62 C-8.38942866 62.69632819 -6.84860595 63.06292004 -4.64453125 65.40625 C-2.9784627 68.29625887 -3.02694614 70.21556909 -3.4375 73.5 C-5.21734405 76.6359157 -5.96058207 77.34102736 -9.4375 78.5 C-15.78961366 79.03831472 -20.1953383 78.24290346 -25.4375 74.5 C-31.39088866 69.01097566 -35.45484815 63.02680874 -35.84155273 54.79321289 C-35.86787437 53.01986201 -35.87687087 51.24619306 -35.87109375 49.47265625 C-35.8763356 48.52490829 -35.88157745 47.57716034 -35.88697815 46.60069275 C-35.89337574 44.6046547 -35.89209081 42.60857884 -35.88354492 40.61254883 C-35.875035 37.57499428 -35.90382821 34.53932232 -35.93554688 31.50195312 C-35.93715924 29.55468806 -35.93658068 27.60741969 -35.93359375 25.66015625 C-35.94482773 24.76095963 -35.95606171 23.861763 -35.96763611 22.93531799 C-35.89051516 15.88402883 -34.15512849 10.60123012 -29.47265625 5.2578125 C-28.82167969 4.71898437 -28.17070313 4.18015625 -27.5 3.625 C-26.85160156 3.07070313 -26.20320313 2.51640625 -25.53515625 1.9453125 C-18.47077988 -2.92213491 -7.84396301 -3.47595223 0 0 Z " fill="#020A27" transform="translate(123.4375,41.5)"/>
<path d="M0 0 C5.66416739 2.96895019 9.86022993 8.07053957 12.4375 13.875 C14.35330855 20.29859338 13.82971077 26.26640467 11.1015625 32.3515625 C7.77101458 38.2767299 3.32841326 42.45228322 -2.7109375 45.5390625 C-9.74516113 46.78039608 -16.62427621 47.24906626 -22.98046875 43.56640625 C-28.40718546 39.42176517 -33.7906579 34.02518499 -34.8984375 27.1015625 C-35.58355116 19.94101969 -35.38139459 13.95563678 -30.8984375 8.1015625 C-21.88974004 -1.36093128 -12.629034 -4.77493512 0 0 Z " fill="#F14D5B" transform="translate(398.8984375,269.8984375)"/>
<path d="M0 0 C5.66416739 2.96895019 9.86022993 8.07053957 12.4375 13.875 C14.35330855 20.29859338 13.82971077 26.26640467 11.1015625 32.3515625 C7.77101458 38.2767299 3.32841326 42.45228322 -2.7109375 45.5390625 C-9.74516113 46.78039608 -16.62427621 47.24906626 -22.98046875 43.56640625 C-28.40718546 39.42176517 -33.7906579 34.02518499 -34.8984375 27.1015625 C-35.58355116 19.94101969 -35.38139459 13.95563678 -30.8984375 8.1015625 C-21.88974004 -1.36093128 -12.629034 -4.77493512 0 0 Z " fill="#F14D5B" transform="translate(398.8984375,189.8984375)"/>
<path d="M0 0 C1.26972656 0.00257813 2.53945313 0.00515625 3.84765625 0.0078125 C5.16636719 0.03617187 6.48507812 0.06453125 7.84375 0.09375 C9.16246094 0.09117187 10.48117187 0.08859375 11.83984375 0.0859375 C22.77449158 0.19694915 22.77449158 0.19694915 27.34375 3.59375 C29.44189417 7.79003834 28.57063527 13.24409849 28.58398438 17.86010742 C28.59366423 19.88827939 28.62467532 21.91542642 28.65625 23.94335938 C28.66398437 25.86825195 28.66398437 25.86825195 28.671875 27.83203125 C28.68589355 29.596073 28.68589355 29.596073 28.70019531 31.39575195 C28.30607939 34.93172759 27.52010611 36.79999468 25.34375 39.59375 C20.35941711 41.2551943 15.16688439 40.81884154 9.94702148 40.83398438 C7.91673966 40.8436998 5.8874667 40.87474209 3.85742188 40.90625 C2.57544922 40.91140625 1.29347656 40.9165625 -0.02734375 40.921875 C-1.20224365 40.9312207 -2.37714355 40.94056641 -3.58764648 40.95019531 C-6.94642967 40.56004308 -8.29947237 39.97740837 -10.65625 37.59375 C-12.31310067 32.62319799 -11.95963389 27.45864453 -12.00634766 22.25195312 C-12.02290751 20.89989001 -12.05019924 19.54791446 -12.08837891 18.19628906 C-12.14332871 16.23816461 -12.161916 14.2791272 -12.1796875 12.3203125 C-12.19950684 11.15064941 -12.21932617 9.98098633 -12.23974609 8.77587891 C-10.96283381 1.81216565 -6.58790688 -0.04037157 0 0 Z " fill="#97D8C0" transform="translate(291.65625,351.40625)"/>
<path d="M0 0 C1.26972656 0.00257813 2.53945312 0.00515625 3.84765625 0.0078125 C5.16636719 0.03617187 6.48507813 0.06453125 7.84375 0.09375 C9.16246094 0.09117187 10.48117188 0.08859375 11.83984375 0.0859375 C22.77449158 0.19694915 22.77449158 0.19694915 27.34375 3.59375 C29.44189417 7.79003834 28.57063527 13.24409849 28.58398438 17.86010742 C28.59366423 19.88827939 28.62467532 21.91542642 28.65625 23.94335938 C28.66398437 25.86825195 28.66398437 25.86825195 28.671875 27.83203125 C28.68589355 29.596073 28.68589355 29.596073 28.70019531 31.39575195 C28.30607939 34.93172759 27.52010611 36.79999468 25.34375 39.59375 C20.35941711 41.2551943 15.16688439 40.81884154 9.94702148 40.83398438 C7.91673966 40.8436998 5.8874667 40.87474209 3.85742188 40.90625 C2.57544922 40.91140625 1.29347656 40.9165625 -0.02734375 40.921875 C-1.20224365 40.9312207 -2.37714355 40.94056641 -3.58764648 40.95019531 C-6.94642967 40.56004308 -8.29947237 39.97740837 -10.65625 37.59375 C-12.31310067 32.62319799 -11.95963389 27.45864453 -12.00634766 22.25195312 C-12.02290751 20.89989001 -12.05019924 19.54791446 -12.08837891 18.19628906 C-12.14332871 16.23816461 -12.161916 14.2791272 -12.1796875 12.3203125 C-12.19950684 11.15064941 -12.21932617 9.98098633 -12.23974609 8.77587891 C-10.96283381 1.81216565 -6.58790688 -0.04037157 0 0 Z " fill="#97D8C0" transform="translate(203.65625,351.40625)"/>
<path d="M0 0 C1.26972656 0.00257813 2.53945312 0.00515625 3.84765625 0.0078125 C5.16636719 0.03617187 6.48507813 0.06453125 7.84375 0.09375 C9.16246094 0.09117187 10.48117188 0.08859375 11.83984375 0.0859375 C22.77449158 0.19694915 22.77449158 0.19694915 27.34375 3.59375 C29.44189417 7.79003834 28.57063527 13.24409849 28.58398438 17.86010742 C28.59366423 19.88827939 28.62467532 21.91542642 28.65625 23.94335938 C28.66398437 25.86825195 28.66398437 25.86825195 28.671875 27.83203125 C28.68589355 29.596073 28.68589355 29.596073 28.70019531 31.39575195 C28.30607939 34.93172759 27.52010611 36.79999468 25.34375 39.59375 C20.35941711 41.2551943 15.16688439 40.81884154 9.94702148 40.83398438 C7.91673966 40.8436998 5.8874667 40.87474209 3.85742188 40.90625 C2.57544922 40.91140625 1.29347656 40.9165625 -0.02734375 40.921875 C-1.20224365 40.9312207 -2.37714355 40.94056641 -3.58764648 40.95019531 C-6.94642967 40.56004308 -8.29947237 39.97740837 -10.65625 37.59375 C-12.31310067 32.62319799 -11.95963389 27.45864453 -12.00634766 22.25195312 C-12.02290751 20.89989001 -12.05019924 19.54791446 -12.08837891 18.19628906 C-12.14332871 16.23816461 -12.161916 14.2791272 -12.1796875 12.3203125 C-12.19950684 11.15064941 -12.21932617 9.98098633 -12.23974609 8.77587891 C-10.96283381 1.81216565 -6.58790688 -0.04037157 0 0 Z " fill="#97D8C0" transform="translate(115.65625,351.40625)"/>
<path d="M0 0 C1.26972656 0.00257813 2.53945313 0.00515625 3.84765625 0.0078125 C5.16636719 0.03617187 6.48507812 0.06453125 7.84375 0.09375 C9.16246094 0.09117187 10.48117187 0.08859375 11.83984375 0.0859375 C22.77449158 0.19694915 22.77449158 0.19694915 27.34375 3.59375 C29.44189417 7.79003834 28.57063527 13.24409849 28.58398438 17.86010742 C28.59366423 19.88827939 28.62467532 21.91542642 28.65625 23.94335938 C28.66398437 25.86825195 28.66398437 25.86825195 28.671875 27.83203125 C28.68589355 29.596073 28.68589355 29.596073 28.70019531 31.39575195 C28.30607939 34.93172759 27.52010611 36.79999468 25.34375 39.59375 C20.35941711 41.2551943 15.16688439 40.81884154 9.94702148 40.83398438 C7.91673966 40.8436998 5.8874667 40.87474209 3.85742188 40.90625 C2.57544922 40.91140625 1.29347656 40.9165625 -0.02734375 40.921875 C-1.20224365 40.9312207 -2.37714355 40.94056641 -3.58764648 40.95019531 C-6.94642967 40.56004308 -8.29947237 39.97740837 -10.65625 37.59375 C-12.31310067 32.62319799 -11.95963389 27.45864453 -12.00634766 22.25195312 C-12.02290751 20.89989001 -12.05019924 19.54791446 -12.08837891 18.19628906 C-12.14332871 16.23816461 -12.161916 14.2791272 -12.1796875 12.3203125 C-12.19950684 11.15064941 -12.21932617 9.98098633 -12.23974609 8.77587891 C-10.96283381 1.81216565 -6.58790688 -0.04037157 0 0 Z " fill="#97D8C0" transform="translate(291.65625,271.40625)"/>
<path d="M0 0 C1.26972656 0.00257813 2.53945312 0.00515625 3.84765625 0.0078125 C5.16636719 0.03617187 6.48507813 0.06453125 7.84375 0.09375 C9.16246094 0.09117187 10.48117188 0.08859375 11.83984375 0.0859375 C22.77449158 0.19694915 22.77449158 0.19694915 27.34375 3.59375 C29.44189417 7.79003834 28.57063527 13.24409849 28.58398438 17.86010742 C28.59366423 19.88827939 28.62467532 21.91542642 28.65625 23.94335938 C28.66398437 25.86825195 28.66398437 25.86825195 28.671875 27.83203125 C28.68589355 29.596073 28.68589355 29.596073 28.70019531 31.39575195 C28.30607939 34.93172759 27.52010611 36.79999468 25.34375 39.59375 C20.35941711 41.2551943 15.16688439 40.81884154 9.94702148 40.83398438 C7.91673966 40.8436998 5.8874667 40.87474209 3.85742188 40.90625 C2.57544922 40.91140625 1.29347656 40.9165625 -0.02734375 40.921875 C-1.20224365 40.9312207 -2.37714355 40.94056641 -3.58764648 40.95019531 C-6.94642967 40.56004308 -8.29947237 39.97740837 -10.65625 37.59375 C-12.31310067 32.62319799 -11.95963389 27.45864453 -12.00634766 22.25195312 C-12.02290751 20.89989001 -12.05019924 19.54791446 -12.08837891 18.19628906 C-12.14332871 16.23816461 -12.161916 14.2791272 -12.1796875 12.3203125 C-12.19950684 11.15064941 -12.21932617 9.98098633 -12.23974609 8.77587891 C-10.96283381 1.81216565 -6.58790688 -0.04037157 0 0 Z " fill="#97D8C0" transform="translate(203.65625,271.40625)"/>
<path d="M0 0 C1.26972656 0.00257813 2.53945312 0.00515625 3.84765625 0.0078125 C5.16636719 0.03617187 6.48507813 0.06453125 7.84375 0.09375 C9.16246094 0.09117187 10.48117188 0.08859375 11.83984375 0.0859375 C22.77449158 0.19694915 22.77449158 0.19694915 27.34375 3.59375 C29.44189417 7.79003834 28.57063527 13.24409849 28.58398438 17.86010742 C28.59366423 19.88827939 28.62467532 21.91542642 28.65625 23.94335938 C28.66398437 25.86825195 28.66398437 25.86825195 28.671875 27.83203125 C28.68589355 29.596073 28.68589355 29.596073 28.70019531 31.39575195 C28.30607939 34.93172759 27.52010611 36.79999468 25.34375 39.59375 C20.35941711 41.2551943 15.16688439 40.81884154 9.94702148 40.83398438 C7.91673966 40.8436998 5.8874667 40.87474209 3.85742188 40.90625 C2.57544922 40.91140625 1.29347656 40.9165625 -0.02734375 40.921875 C-1.20224365 40.9312207 -2.37714355 40.94056641 -3.58764648 40.95019531 C-6.94642967 40.56004308 -8.29947237 39.97740837 -10.65625 37.59375 C-12.31310067 32.62319799 -11.95963389 27.45864453 -12.00634766 22.25195312 C-12.02290751 20.89989001 -12.05019924 19.54791446 -12.08837891 18.19628906 C-12.14332871 16.23816461 -12.161916 14.2791272 -12.1796875 12.3203125 C-12.19950684 11.15064941 -12.21932617 9.98098633 -12.23974609 8.77587891 C-10.96283381 1.81216565 -6.58790688 -0.04037157 0 0 Z " fill="#97D8C0" transform="translate(115.65625,271.40625)"/>
<path d="M0 0 C1.26972656 0.00257813 2.53945313 0.00515625 3.84765625 0.0078125 C5.16636719 0.03617188 6.48507812 0.06453125 7.84375 0.09375 C9.16246094 0.09117187 10.48117187 0.08859375 11.83984375 0.0859375 C22.77449158 0.19694915 22.77449158 0.19694915 27.34375 3.59375 C29.44189417 7.79003834 28.57063527 13.24409849 28.58398438 17.86010742 C28.59366423 19.88827939 28.62467532 21.91542642 28.65625 23.94335938 C28.66398437 25.86825195 28.66398437 25.86825195 28.671875 27.83203125 C28.68589355 29.596073 28.68589355 29.596073 28.70019531 31.39575195 C28.30607939 34.93172759 27.52010611 36.79999468 25.34375 39.59375 C20.35941711 41.2551943 15.16688439 40.81884154 9.94702148 40.83398438 C7.91673966 40.8436998 5.8874667 40.87474209 3.85742188 40.90625 C2.57544922 40.91140625 1.29347656 40.9165625 -0.02734375 40.921875 C-1.20224365 40.9312207 -2.37714355 40.94056641 -3.58764648 40.95019531 C-6.94642967 40.56004308 -8.29947237 39.97740837 -10.65625 37.59375 C-12.31310067 32.62319799 -11.95963389 27.45864453 -12.00634766 22.25195312 C-12.02290751 20.89989001 -12.05019924 19.54791446 -12.08837891 18.19628906 C-12.14332871 16.23816461 -12.161916 14.2791272 -12.1796875 12.3203125 C-12.19950684 11.15064941 -12.21932617 9.98098633 -12.23974609 8.77587891 C-10.96283381 1.81216565 -6.58790688 -0.04037157 0 0 Z " fill="#97D8C0" transform="translate(291.65625,191.40625)"/>
<path d="M0 0 C1.26972656 0.00257813 2.53945312 0.00515625 3.84765625 0.0078125 C5.16636719 0.03617188 6.48507813 0.06453125 7.84375 0.09375 C9.16246094 0.09117187 10.48117188 0.08859375 11.83984375 0.0859375 C22.77449158 0.19694915 22.77449158 0.19694915 27.34375 3.59375 C29.44189417 7.79003834 28.57063527 13.24409849 28.58398438 17.86010742 C28.59366423 19.88827939 28.62467532 21.91542642 28.65625 23.94335938 C28.66398437 25.86825195 28.66398437 25.86825195 28.671875 27.83203125 C28.68589355 29.596073 28.68589355 29.596073 28.70019531 31.39575195 C28.30607939 34.93172759 27.52010611 36.79999468 25.34375 39.59375 C20.35941711 41.2551943 15.16688439 40.81884154 9.94702148 40.83398438 C7.91673966 40.8436998 5.8874667 40.87474209 3.85742188 40.90625 C2.57544922 40.91140625 1.29347656 40.9165625 -0.02734375 40.921875 C-1.20224365 40.9312207 -2.37714355 40.94056641 -3.58764648 40.95019531 C-6.94642967 40.56004308 -8.29947237 39.97740837 -10.65625 37.59375 C-12.31310067 32.62319799 -11.95963389 27.45864453 -12.00634766 22.25195312 C-12.02290751 20.89989001 -12.05019924 19.54791446 -12.08837891 18.19628906 C-12.14332871 16.23816461 -12.161916 14.2791272 -12.1796875 12.3203125 C-12.19950684 11.15064941 -12.21932617 9.98098633 -12.23974609 8.77587891 C-10.96283381 1.81216565 -6.58790688 -0.04037157 0 0 Z " fill="#97D8C0" transform="translate(203.65625,191.40625)"/>
<path d="M0 0 C1.26972656 0.00257813 2.53945312 0.00515625 3.84765625 0.0078125 C5.16636719 0.03617188 6.48507813 0.06453125 7.84375 0.09375 C9.16246094 0.09117187 10.48117188 0.08859375 11.83984375 0.0859375 C22.77449158 0.19694915 22.77449158 0.19694915 27.34375 3.59375 C29.44189417 7.79003834 28.57063527 13.24409849 28.58398438 17.86010742 C28.59366423 19.88827939 28.62467532 21.91542642 28.65625 23.94335938 C28.66398437 25.86825195 28.66398437 25.86825195 28.671875 27.83203125 C28.68589355 29.596073 28.68589355 29.596073 28.70019531 31.39575195 C28.30607939 34.93172759 27.52010611 36.79999468 25.34375 39.59375 C20.35941711 41.2551943 15.16688439 40.81884154 9.94702148 40.83398438 C7.91673966 40.8436998 5.8874667 40.87474209 3.85742188 40.90625 C2.57544922 40.91140625 1.29347656 40.9165625 -0.02734375 40.921875 C-1.20224365 40.9312207 -2.37714355 40.94056641 -3.58764648 40.95019531 C-6.94642967 40.56004308 -8.29947237 39.97740837 -10.65625 37.59375 C-12.31310067 32.62319799 -11.95963389 27.45864453 -12.00634766 22.25195312 C-12.02290751 20.89989001 -12.05019924 19.54791446 -12.08837891 18.19628906 C-12.14332871 16.23816461 -12.161916 14.2791272 -12.1796875 12.3203125 C-12.19950684 11.15064941 -12.21932617 9.98098633 -12.23974609 8.77587891 C-10.96283381 1.81216565 -6.58790688 -0.04037157 0 0 Z " fill="#97D8C0" transform="translate(115.65625,191.40625)"/>
</svg>
