<svg width="35" height="26" xmlns="http://www.w3.org/2000/svg" xml:space="preserve" version="1.1">
 <metadata id="metadata3004">image/svg+xml</metadata>

 <g>
  <title>Layer 1</title>
  <path stroke="null" fill="#5a85d7" id="path3101" d="m112.18702,0.13294c-0.30768,-0.00088 -0.60728,0.00088 -0.90303,0.00281c-6.09489,0 -11.03568,5.39744 -11.03568,12.0555c0,6.65807 4.94079,12.05551 11.03568,12.05551c0.63715,0 1.26118,-0.00121 1.85162,0c2.47747,0 4.76179,-0.88997 6.60319,-2.39573l-2.06814,-3.2731c-1.13256,0.92246 -2.65416,1.51606 -4.59771,1.70634c-0.38449,-0.00058 -0.79297,0 -1.20783,0c-3.96882,0 -7.18716,-3.8576 -7.18716,-8.11011c0,-4.99944 3.51062,-8.06454 7.18716,-8.06454c0.38511,-0.00291 0.78461,0 1.20783,0c1.19158,0.12742 3.74284,0.78732 3.971,2.3302c0,0 0.007,1.2921 0.006,1.85447c0,0 3.83995,-0.00116 3.86278,0l0,-3.22183c0,-0.66301 -0.30535,-1.68408 -0.88594,-2.26467c-1.81167,-1.81167 -4.96546,-2.67204 -6.89089,-2.67204c-0.32498,0 -0.64093,-0.00233 -0.9486,-0.00281l-0.00028,0zm-103.39473,0.45008l-8.38929,23.24502l3.01388,0l8.38643,-23.24502l-3.01102,0zm6.65445,0l-8.38643,23.24502l3.01102,0l8.38643,-23.24502l-3.01102,0zm6.67724,0l-8.38929,23.24502l3.11359,0l0.0029,-0.0086c0.91421,-0.0017 1.68663,-0.61175 1.93138,-1.44712l1.65507,-4.5493l7.8338,0l1.65506,4.5493c0.245,0.83625 1.01878,1.44712 1.93425,1.44712c0.04537,0 0.08923,-0.0023 0.13387,-0.0059l0.0059,0.01424l3.01387,0l-0.0029,-0.0059l0.58113,0l0,-3.64628l-1.53827,0c-0.27118,-0.03371 -0.48063,-0.38272 -0.58113,-0.61815l-6.84816,-18.97488l-4.50087,0l-0.0002,0.00045zm40.19451,0l-8.38929,23.24502l3.11358,0l0.0029,-0.0086c0.91422,-0.0017 1.68665,-0.61175 1.93139,-1.44712l1.65507,-4.5493l7.83379,0l1.65507,4.5493c0.245,0.83625 1.01878,1.44712 1.93424,1.44712c0.04537,0 0.08924,-0.0023 0.13388,-0.0059l0.0059,0.01424l3.01388,0l-0.0023,-0.0059l0.58112,0l0,-3.64628l-1.53827,0c-0.27119,-0.03371 -0.48064,-0.38272 -0.58113,-0.61815l-6.84816,-18.97488l-4.50087,0l-0.0008,0.00045zm66.47902,0l-8.38929,23.24502l3.11359,0l0.003,-0.0086c0.91421,-0.0017 1.68663,-0.61175 1.93138,-1.44712l1.65508,-4.5493l7.83379,0l1.65507,4.5493c0.245,0.83625 1.01877,1.44712 1.93423,1.44712c0.0454,0 0.0892,-0.0023 0.13389,-0.0059l0.006,0.01424l3.01387,0l-0.003,-0.0059l0.58112,0l0,-3.64628l-1.53827,0c-0.27121,-0.03371 -0.48065,-0.38272 -0.58113,-0.61815l-6.84816,-18.97488l-4.50087,0l-0.0003,0.00045zm-46.81192,0.00282l0,0.00853l-3.8172,0l0,23.23647l2.47263,0c0.0095,0 0.01889,0 0.02848,0c0.95037,0 1.72059,-0.77022 1.72059,-1.72059c0,-0.09208 -0.0089,-0.18246 -0.02277,-0.27062l0,-12.18938c-0.0064,-0.75206 -0.17018,-1.18534 -0.15383,-1.87727c0.40408,0.60322 0.66829,1.23373 1.75761,2.87713c2.34777,3.54193 6.35015,9.24055 8.92768,13.03545l0.05696,0.14528l0.03989,0c0.01229,0.01812 0.02765,0.03895 0.03989,0.05696l0,-0.05696l3.81149,0l0,-19.14865c0,-0.23916 0.18305,-0.43787 0.41591,-0.46148c0.55849,0.00281 1.12082,0.00562 1.6807,0.00853l0,-3.63488l-4.6376,0l-0.02848,0c-0.95037,0 -1.72059,0.77022 -1.72059,1.72059c0,0.09207 0.0089,0.18246 0.02278,0.27062l0,11.33764c-0.01677,0.94704 0.17847,1.88115 0.15383,2.82587c-0.28648,-0.44655 -0.59493,-1.21854 -1.41008,-2.4527c-2.3337,-3.53324 -6.63141,-9.7187 -9.33219,-13.70202c-0.0017,-0.00262 -0.0041,-0.00592 -0.0059,-0.00863l0.0002,0.00011zm-38.81291,0.00562c-2.61871,0.00533 -5.21216,0.02279 -7.84519,0.02279l0,3.60924l2.09661,0c-0.06832,5.89081 0.04842,11.77 0.04842,17.59613c0,0 -0.23762,1.97127 2.08521,1.97127l6.44935,0c5.1487,0 7.44068,-3.34029 7.44068,-6.50633l0,-0.60391c0.00002,-0.0035 0,-0.0076 0,-0.01141c0,-2.24539 -1.51221,-4.18063 -3.72603,-5.12187c1.69645,-0.83755 2.86004,-2.58237 2.86004,-4.60913l0,-0.60391c0.00001,-0.00378 0,-0.00756 0,-0.01139c0,-3.17525 -3.02378,-5.7315 -6.77979,-5.7315c-0.88104,-0.00184 -1.7564,-0.00184 -2.62931,0l0.00001,0.00002zm0.17378,3.64342c0.51262,-0.00184 1.01927,-0.00136 1.56675,0.00281c2.35792,-0.00001 3.23607,0.82086 3.35002,2.89993l0,0.3105c0,1.05711 -1.01982,2.59797 -2.541,2.59797l-3.97958,0l0,-5.8027c0.57258,-0.00204 1.09117,-0.00659 1.60381,-0.00853l0,0.00002zm-18.97204,0.70932l0.01995,0.11395c0.5977,2.57805 1.77156,5.95582 2.91702,9.2923l0.0029,0.0059l-5.87963,0l0.0023,-0.0059c1.14547,-3.33648 2.31933,-6.71425 2.91703,-9.2923l0.02001,-0.11395l0.00042,0zm40.1945,0l0.01994,0.11395c0.5977,2.57805 1.77157,5.95582 2.91702,9.2923l0.0023,0.0059l-5.87962,0l0.0029,-0.0059c1.14546,-3.33648 2.31934,-6.71425 2.91703,-9.2923l0.01995,-0.11395l0.00048,0zm66.47902,0l0.02,0.11395c0.5977,2.57805 1.77157,5.95582 2.91702,9.2923l0.003,0.0059l-5.87962,0l0.003,-0.0059c1.14545,-3.33648 2.31932,-6.71425 2.91701,-9.2923l0.02,-0.11395l-0.00041,0zm-85.31432,8.56875c2.10022,-0.02583 3.35173,1.21423 3.33577,3.33863l0,0.35608c0,1.20951 -1.14521,2.97399 -2.85435,2.97399l-4.47239,0l0,-6.64021c1.31087,0.0048 2.71024,-0.01059 3.99097,-0.02848l0,-0.00001z"/>
 </g>
</svg>