<svg width="48" height="48" viewBox="0 0 48 48" fill="#D1005D" xmlns="http://www.w3.org/2000/svg">
    <path d="M43.9659 38.0024L40.9869 15.7444C40.8935 14.7189 40.7743 12.9621 40.7724 12.9422L40.7505 12.6282H34.2165L33.8788 12.67V13.0078C33.8788 13.8942 33.5809 14.7547 33.2234 15.7046L26.0002 34.1609L17.7999 14.9156C14.7514 7.86262 10.4873 5.90907 8.25107 5.37051C5.02575 4.59943 3 5.27114 3 5.27114C3 5.27114 5.21443 5.1678 7.07733 6.52117C10.4536 8.97353 10.6522 12.1632 10.112 16.2829L7.41495 36.2734C7.05747 38.688 6.33654 42.7044 6.32859 42.7442L6.25709 43.1416H10.8508L10.8746 42.8296C10.8746 42.7998 11.1229 39.7254 11.4704 36.9988L13.8993 18.7313L22.0262 38.0382C23.1543 40.6813 23.8394 41.9294 26.1234 43.6643L26.4789 43.9326L36.2998 18.7929L38.7248 39.3041C38.8717 40.8264 38.981 42.8038 38.981 42.8237L38.9988 43.1436H44.7464L44.6809 42.7462C44.6769 42.7223 44.238 40.105 43.9659 38.0024Z"></path>
</svg>