<svg width="101" height="95.92" xmlns="http://www.w3.org/2000/svg" data-name="Layer 1">

 <g>
  <title>Layer 1</title>
  <g id="Page-1">
   <g data-name="FA SANTANDER PV POS RGB" id="FA_SANTANDER_PV_POS_RGB">
    <path fill="#ec0000" d="m72.21,43.95999a22.33,22.33 0 0 0 -2.89,-10l-15.78,-27.34a21.79,21.79 0 0 1 -2.49,-6.66l-0.67,1.14a22,22 0 0 0 0,21.9l12.62,21.96a22,22 0 0 1 0,21.9l-0.67,1.14a21.79,21.79 0 0 0 -2.49,-6.58l-11.55,-20l-7.39,-12.76a21.79,21.79 0 0 1 -2.49,-6.58l-0.67,1.14a22,22 0 0 0 -0.07,21.83l12.7,22a22,22 0 0 1 0,21.9l-0.67,1.14a21.79,21.79 0 0 0 -2.49,-6.58l-15.78,-27.61a21.41,21.41 0 0 1 -2.88,-11.94c-16.93,4.43 -28.55,13.77 -28.55,24.65c0,15.11 22.57,27.34 50.44,27.34s50.41,-12.26 50.41,-27.37c0,-10.88 -11.72,-20.22 -28.64,-24.62zm47.64,-380" id="Shape"/>
   </g>
  </g>
 </g>
</svg>